<?xml version="1.0" encoding="iso-8859-1"?>
<!-- Generator: Adobe Illustrator 19.0.0, SVG Export Plug-In . SVG Version: 6.00 Build 0)  -->
<svg version="1.1" id="Capa_1" xmlns="http://www.w3.org/2000/svg" xmlns:xlink="http://www.w3.org/1999/xlink" x="0px" y="0px"
	 viewBox="0 0 512 512" style="enable-background:new 0 0 512 512;" xml:space="preserve">
<linearGradient id="SVGID_1_" gradientUnits="userSpaceOnUse" x1="2.2058" y1="653.2072" x2="-60.5942" y2="590.4042" gradientTransform="matrix(8 0 0 -8 343 5085)">
	<stop  offset="0" style="stop-color:#F7941E"/>
	<stop  offset="1" style="stop-color:#EE2A7B"/>
</linearGradient>
<path style="fill:url(#SVGID_1_);" d="M128,80c-4.8,0-8,3.2-8,8s3.2,8,8,8h8c4.8,0,8-3.2,8-8s-3.2-8-8-8H128z"/>
<linearGradient id="SVGID_2_" gradientUnits="userSpaceOnUse" x1="4.2059" y1="651.2072" x2="-58.5941" y2="588.4041" gradientTransform="matrix(8 0 0 -8 343 5085)">
	<stop  offset="0" style="stop-color:#F7941E"/>
	<stop  offset="1" style="stop-color:#EE2A7B"/>
</linearGradient>
<path style="fill:url(#SVGID_2_);" d="M160,80c-4.8,0-8,3.2-8,8s3.2,8,8,8h8c4.8,0,8-3.2,8-8s-3.2-8-8-8H160z"/>
<linearGradient id="SVGID_3_" gradientUnits="userSpaceOnUse" x1="0.2058" y1="655.2072" x2="-62.5942" y2="592.4042" gradientTransform="matrix(8 0 0 -8 343 5085)">
	<stop  offset="0" style="stop-color:#F7941E"/>
	<stop  offset="1" style="stop-color:#EE2A7B"/>
</linearGradient>
<path style="fill:url(#SVGID_3_);" d="M96,96h8c4.8,0,8-3.2,8-8s-3.2-8-8-8h-8c-4.8,0-8,3.2-8,8S91.2,96,96,96z"/>
<linearGradient id="SVGID_4_" gradientUnits="userSpaceOnUse" x1="0.7071" y1="654.7059" x2="-62.0959" y2="591.9059" gradientTransform="matrix(8 0 0 -8 343 5085)">
	<stop  offset="0" style="stop-color:#F7941E"/>
	<stop  offset="1" style="stop-color:#EE2A7B"/>
</linearGradient>
<path style="fill:url(#SVGID_4_);" d="M96,64h88c4.8,0,8-3.2,8-8s-3.2-8-8-8H96c-4.8,0-8,3.2-8,8S91.2,64,96,64z"/>
<linearGradient id="SVGID_5_" gradientUnits="userSpaceOnUse" x1="10.958" y1="644.458" x2="-51.845" y2="581.655" gradientTransform="matrix(8 0 0 -8 343 5085)">
	<stop  offset="0" style="stop-color:#F7941E"/>
	<stop  offset="1" style="stop-color:#EE2A7B"/>
</linearGradient>
<path style="fill:url(#SVGID_5_);" d="M344,144c0-4.8-3.2-8-8-8H96c-4.8,0-8,3.2-8,8s3.2,8,8,8h240C340.8,152,344,148.8,344,144z"/>
<linearGradient id="SVGID_6_" gradientUnits="userSpaceOnUse" x1="15.958" y1="639.458" x2="-46.845" y2="576.655" gradientTransform="matrix(8 0 0 -8 343 5085)">
	<stop  offset="0" style="stop-color:#F7941E"/>
	<stop  offset="1" style="stop-color:#EE2A7B"/>
</linearGradient>
<path style="fill:url(#SVGID_6_);" d="M336,168H192c-4.8,0-8,3.2-8,8s3.2,8,8,8h144c4.8,0,8-3.2,8-8S340.8,168,336,168z"/>
<linearGradient id="SVGID_7_" gradientUnits="userSpaceOnUse" x1="18.4558" y1="636.9572" x2="-44.3442" y2="574.1542" gradientTransform="matrix(8 0 0 -8 343 5085)">
	<stop  offset="0" style="stop-color:#F7941E"/>
	<stop  offset="1" style="stop-color:#EE2A7B"/>
</linearGradient>
<path style="fill:url(#SVGID_7_);" d="M336,200H208c-4.8,0-8,3.2-8,8s3.2,8,8,8h128c4.8,0,8-3.2,8-8S340.8,200,336,200z"/>
<linearGradient id="SVGID_8_" gradientUnits="userSpaceOnUse" x1="22.7052" y1="632.7078" x2="-40.0948" y2="569.9048" gradientTransform="matrix(8 0 0 -8 343 5085)">
	<stop  offset="0" style="stop-color:#F7941E"/>
	<stop  offset="1" style="stop-color:#EE2A7B"/>
</linearGradient>
<path style="fill:url(#SVGID_8_);" d="M80,480c4.8,0,8-3.2,8-8s-3.2-8-8-8h-8c-4.8,0-8,3.2-8,8s3.2,8,8,8H80z"/>
<linearGradient id="SVGID_9_" gradientUnits="userSpaceOnUse" x1="24.7052" y1="630.7078" x2="-38.0948" y2="567.9048" gradientTransform="matrix(8 0 0 -8 343 5085)">
	<stop  offset="0" style="stop-color:#F7941E"/>
	<stop  offset="1" style="stop-color:#EE2A7B"/>
</linearGradient>
<path style="fill:url(#SVGID_9_);" d="M112,480c4.8,0,8-3.2,8-8s-3.2-8-8-8h-8c-4.8,0-8,3.2-8,8s3.2,8,8,8H112z"/>
<linearGradient id="SVGID_10_" gradientUnits="userSpaceOnUse" x1="20.7051" y1="634.7079" x2="-42.0949" y2="571.9049" gradientTransform="matrix(8 0 0 -8 343 5085)">
	<stop  offset="0" style="stop-color:#F7941E"/>
	<stop  offset="1" style="stop-color:#EE2A7B"/>
</linearGradient>
<path style="fill:url(#SVGID_10_);" d="M48,480c4.8,0,8-3.2,8-8s-3.2-8-8-8h-8c-4.8,0-8,3.2-8,8s3.2,8,8,8H48z"/>
<linearGradient id="SVGID_11_" gradientUnits="userSpaceOnUse" x1="30.2059" y1="625.2071" x2="-32.5941" y2="562.4041" gradientTransform="matrix(8 0 0 -8 343 5085)">
	<stop  offset="0" style="stop-color:#F7941E"/>
	<stop  offset="1" style="stop-color:#EE2A7B"/>
</linearGradient>
<path style="fill:url(#SVGID_11_);" d="M384,296c4.8,0,8-3.2,8-8s-3.2-8-8-8h-8c-4.8,0-8,3.2-8,8s3.2,8,8,8H384z"/>
<linearGradient id="SVGID_12_" gradientUnits="userSpaceOnUse" x1="32.2059" y1="623.2071" x2="-30.5941" y2="560.4041" gradientTransform="matrix(8 0 0 -8 343 5085)">
	<stop  offset="0" style="stop-color:#F7941E"/>
	<stop  offset="1" style="stop-color:#EE2A7B"/>
</linearGradient>
<path style="fill:url(#SVGID_12_);" d="M416,296c4.8,0,8-3.2,8-8s-3.2-8-8-8h-8c-4.8,0-8,3.2-8,8s3.2,8,8,8H416z"/>
<linearGradient id="SVGID_13_" gradientUnits="userSpaceOnUse" x1="28.2058" y1="627.2072" x2="-34.5942" y2="564.4042" gradientTransform="matrix(8 0 0 -8 343 5085)">
	<stop  offset="0" style="stop-color:#F7941E"/>
	<stop  offset="1" style="stop-color:#EE2A7B"/>
</linearGradient>
<path style="fill:url(#SVGID_13_);" d="M352,296c4.8,0,8-3.2,8-8s-3.2-8-8-8h-8c-4.8,0-8,3.2-8,8s3.2,8,8,8H352z"/>
<linearGradient id="SVGID_14_" gradientUnits="userSpaceOnUse" x1="9.7077" y1="645.7053" x2="-53.0953" y2="582.9053" gradientTransform="matrix(8 0 0 -8 343 5085)">
	<stop  offset="0" style="stop-color:#F7941E"/>
	<stop  offset="1" style="stop-color:#EE2A7B"/>
</linearGradient>
<path style="fill:url(#SVGID_14_);" d="M8,344c4.8,0,8-3.2,8-8v-8c0-4.8-3.2-8-8-8s-8,3.2-8,8v8C0,340.8,3.2,344,8,344z"/>
<linearGradient id="SVGID_15_" gradientUnits="userSpaceOnUse" x1="20.6961" y1="634.7249" x2="-42.1109" y2="571.9219" gradientTransform="matrix(8 0 0 -8 343 5085)">
	<stop  offset="0" style="stop-color:#F7941E"/>
	<stop  offset="1" style="stop-color:#EE2A7B"/>
</linearGradient>
<path style="fill:url(#SVGID_15_);" d="M504,248h-24V56c0-2.4-0.8-4-2.4-5.6l-48-48c-3.2-3.2-8-3.2-11.2,0s-3.2,8,0,11.2L464,59.2
	V344c0,4.8,3.2,8,8,8s8-3.2,8-8v-80h15.2l-22.4,232H448V256c0-4.8-3.2-8-8-8V72c0-2.4-0.8-4-2.4-5.6l-64-64c-3.2-3.2-8-3.2-11.2,0
	s-3.2,8,0,11.2L424,75.2V248h-24V88c0-2.4-0.8-4-2.4-5.6l-80-80C316,0.8,314.4,0,312,0H40c-4.8,0-8,3.2-8,8v168H8c-4.8,0-8,3.2-8,8
	v112c0,4.8,3.2,8,8,8s8-3.2,8-8V192h139.2l29.6,67.2c1.6,3.2,4,4.8,7.2,4.8h198.4c0.8,0,0.8,0,1.6,0s0.8,0,1.6,0H432v232H16V368
	c0-4.8-3.2-8-8-8s-8,3.2-8,8v136c0,4.8,3.2,8,8,8h432h40c4,0,7.2-3.2,8-7.2l24-248c0-2.4-0.8-4.8-2.4-6.4
	C508.8,248.8,506.4,248,504,248z M320,27.2L372.8,80H320V27.2z M167.2,180.8c-0.8-3.2-4-4.8-7.2-4.8H48V16h256v72c0,4.8,3.2,8,8,8
	h72v152H196.8L167.2,180.8z"/>
<g>
</g>
<g>
</g>
<g>
</g>
<g>
</g>
<g>
</g>
<g>
</g>
<g>
</g>
<g>
</g>
<g>
</g>
<g>
</g>
<g>
</g>
<g>
</g>
<g>
</g>
<g>
</g>
<g>
</g>
</svg>
